<svg version="1.1" xmlns="http://www.w3.org/2000/svg" xmlns:xlink="http://www.w3.org/1999/xlink" width="1219" height="644"><defs></defs><g><g transform="translate(10,-14) scale(1,1)"><path fill="#ffffff" stroke="none" d="M 67.46327272727272 125.76 C 67.46327272727272 118.71284595200001 73.07615608552727 113 80 113 C 86.92384391447273 113 92.53672727272728 118.71284595200001 92.53672727272728 125.76 C 92.53672727272728 132.807154048 86.92384391447273 138.52 80 138.52 C 73.07615608552727 138.52 67.46327272727272 132.807154048 67.46327272727272 125.76 Z"></path></g><g transform="translate(10,-14) scale(1,1)"><path fill="none" stroke="#000000" d="M 67.46327272727272 125.76 C 67.46327272727272 118.71284595200001 73.07615608552727 113 80 113 C 86.92384391447273 113 92.53672727272728 118.71284595200001 92.53672727272728 125.76 C 92.53672727272728 132.807154048 86.92384391447273 138.52 80 138.52 C 73.07615608552727 138.52 67.46327272727272 132.807154048 67.46327272727272 125.76 Z" stroke-miterlimit="10"></path></g><g transform="translate(10,-14) scale(1,1)"><path fill="none" stroke="#000000" d="M 80 138.52 L 80 163.48" stroke-miterlimit="10"></path></g><g transform="translate(10,-14) scale(1,1)"><path fill="none" stroke="#000000" d="M 66.72581818181818 147.88 L 93.27418181818182 147.88" stroke-miterlimit="10"></path></g><g transform="translate(10,-14) scale(1,1)"><path fill="none" stroke="#000000" d="M 80 163.48 L 61.56363636363636 189" stroke-miterlimit="10"></path></g><g transform="translate(10,-14) scale(1,1)"><path fill="none" stroke="#000000" d="M 80 163.48 L 98.43636363636364 189" stroke-miterlimit="10"></path></g><g transform="translate(10,-14) scale(1,1)"><g><path fill="none" stroke="none"></path><text fill="#000000" stroke="none" font-family="Arial" font-size="13px" font-style="normal" font-weight="bold" text-decoration="none" x="51" y="209.5">Utilisateur</text></g></g><g transform="translate(10,-14) scale(1,1)"><path fill="#ffffff" stroke="none" d="M 121.67745454545455 375.12 C 121.67745454545455 367.321738624 127.86601824814547 361 135.5 361 C 143.13398175185455 361 149.32254545454543 367.321738624 149.32254545454543 375.12 C 149.32254545454543 382.91826137600003 143.13398175185455 389.24 135.5 389.24 C 127.86601824814547 389.24 121.67745454545455 382.91826137600003 121.67745454545455 375.12 Z"></path></g><g transform="translate(10,-14) scale(1,1)"><path fill="none" stroke="#000000" d="M 121.67745454545455 375.12 C 121.67745454545455 367.321738624 127.86601824814547 361 135.5 361 C 143.13398175185455 361 149.32254545454543 367.321738624 149.32254545454543 375.12 C 149.32254545454543 382.91826137600003 143.13398175185455 389.24 135.5 389.24 C 127.86601824814547 389.24 121.67745454545455 382.91826137600003 121.67745454545455 375.12 Z" stroke-miterlimit="10"></path></g><g transform="translate(10,-14) scale(1,1)"><path fill="none" stroke="#000000" d="M 135.5 389.24 L 135.5 416.76" stroke-miterlimit="10"></path></g><g transform="translate(10,-14) scale(1,1)"><path fill="none" stroke="#000000" d="M 120.86436363636365 399.56 L 150.13563636363637 399.56" stroke-miterlimit="10"></path></g><g transform="translate(10,-14) scale(1,1)"><path fill="none" stroke="#000000" d="M 135.5 416.76 L 115.17272727272729 445" stroke-miterlimit="10"></path></g><g transform="translate(10,-14) scale(1,1)"><path fill="none" stroke="#000000" d="M 135.5 416.76 L 155.8272727272727 445" stroke-miterlimit="10"></path></g><g transform="translate(10,-14) scale(1,1)"><g><path fill="none" stroke="none"></path><text fill="#000000" stroke="none" font-family="Arial" font-size="13px" font-style="normal" font-weight="bold" text-decoration="none" x="111" y="465.5">Joueur 1</text></g></g><g transform="translate(10,-14) scale(1,1)"><rect fill="#C0C0C0" stroke="none" x="175" y="31" width="345.6" height="15" opacity="0.2"></rect></g><g transform="translate(10,-14) scale(1,1)"><rect fill="#C0C0C0" stroke="none" x="175" y="45" width="864" height="610" opacity="0.2"></rect></g><g transform="translate(10,-14) scale(1,1)"><rect fill="#ffffff" stroke="none" x="168" y="39" width="864" height="609"></rect></g><g transform="translate(10,-14) scale(1,1)"><path fill="none" stroke="#000000" d="M 168 39 L 1032 39 L 1032 648 L 168 648 L 168 39 Z Z" stroke-miterlimit="10"></path></g><g transform="translate(10,-14) scale(1,1)"><rect fill="#ffffff" stroke="none" x="168" y="24" width="345.6" height="15"></rect></g><g transform="translate(10,-14) scale(1,1)"><path fill="none" stroke="#000000" d="M 168 24 L 513.6 24 L 513.6 39 L 168 39 L 168 24 Z Z" stroke-miterlimit="10"></path></g><g transform="translate(10,-14) scale(1,1)"><rect fill="#ffffff" stroke="none" x="168" y="38" width="864" height="610"></rect></g><g transform="translate(10,-14) scale(1,1)"><path fill="none" stroke="#000000" d="M 168 38 L 1032 38 L 1032 648 L 168 648 L 168 38 Z Z" stroke-miterlimit="10"></path></g><g transform="translate(10,-14) scale(1,1)"><g><path fill="none" stroke="none"></path><text fill="#000000" stroke="none" font-family="Arial" font-size="13px" font-style="normal" font-weight="bold" text-decoration="none" x="566" y="58.5">MasterMind</text></g></g><g transform="translate(10,-14) scale(1,1)"><path fill="none" stroke="#000000" d="M 123 359 L 92 216" stroke-miterlimit="10"></path></g><g transform="translate(10,-14) scale(1,1)"><path fill="#FFFFFF" stroke="none" d="M 104.53409185339387 234.08028045719107 L 92 216 L 88.07825242851547 237.6476302625843"></path></g><g transform="translate(10,-14) scale(1,1)"><path fill="none" stroke="#000000" d="M 104.53409185339387 234.08028045719107 L 92 216 L 88.07825242851547 237.6476302625843 L 104.53409185339387 234.08028045719107" stroke-miterlimit="10"></path></g><g transform="translate(10,-14) scale(1,1)"><path fill="none" stroke="#000000" d="M 121 164 L 343 168" stroke-miterlimit="10"></path></g><g transform="translate(10,-14) scale(1,1)"><path fill="none" stroke="#000000" d="M 120 216 L 333 495" stroke-miterlimit="10"></path></g><g transform="translate(10,-14) scale(1,1)"><path fill="#C0C0C0" stroke="none" d="M 655 264 C 655 254.6111584 701.5623808 247 759 247 C 816.4376192 247 863 254.6111584 863 264 C 863 273.3888416 816.4376192 281 759 281 C 701.5623808 281 655 273.3888416 655 264 Z" opacity="0.2"></path></g><g transform="translate(10,-14) scale(1,1)"><path fill="#ffffff" stroke="none" d="M 648 257 C 648 247.6111584 694.5623808 240 752 240 C 809.4376192 240 856 247.6111584 856 257 C 856 266.3888416 809.4376192 274 752 274 C 694.5623808 274 648 266.3888416 648 257 Z"></path></g><g transform="translate(10,-14) scale(1,1)"><path fill="none" stroke="#000000" d="M 648 257 C 648 247.6111584 694.5623808 240 752 240 C 809.4376192 240 856 247.6111584 856 257 C 856 266.3888416 809.4376192 274 752 274 C 694.5623808 274 648 266.3888416 648 257 Z" stroke-miterlimit="10"></path></g><g transform="translate(10,-14) scale(1,1)"><g><path fill="none" stroke="none"></path><text fill="#000000" stroke="none" font-family="Arial" font-size="13px" font-style="normal" font-weight="bold" text-decoration="none" x="690.5" y="264">Determine le gagnant</text></g></g><g transform="translate(10,-14) scale(1,1)"><path fill="#C0C0C0" stroke="none" d="M 735 496 C 735 486.6111584 776.1897984 479 827 479 C 877.8102016 479 919 486.6111584 919 496 C 919 505.3888416 877.8102016 513 827 513 C 776.1897984 513 735 505.3888416 735 496 Z" opacity="0.2"></path></g><g transform="translate(10,-14) scale(1,1)"><path fill="#ffffff" stroke="none" d="M 728 489 C 728 479.6111584 769.1897984 472 820 472 C 870.8102016 472 912 479.6111584 912 489 C 912 498.3888416 870.8102016 506 820 506 C 769.1897984 506 728 498.3888416 728 489 Z"></path></g><g transform="translate(10,-14) scale(1,1)"><path fill="none" stroke="#000000" d="M 728 489 C 728 479.6111584 769.1897984 472 820 472 C 870.8102016 472 912 479.6111584 912 489 C 912 498.3888416 870.8102016 506 820 506 C 769.1897984 506 728 498.3888416 728 489 Z" stroke-miterlimit="10"></path></g><g transform="translate(10,-14) scale(1,1)"><g><path fill="none" stroke="none"></path><text fill="#000000" stroke="none" font-family="Arial" font-size="13px" font-style="normal" font-weight="bold" text-decoration="none" x="765" y="496">Generer 4 couleurs</text></g></g><g transform="translate(10,-14) scale(1,1)"><path fill="#ffffff" stroke="none" d="M 1129.6592727272728 203.37 C 1129.6592727272728 193.224528224 1137.6468375063273 185 1147.5 185 C 1157.3531624936727 185 1165.3407272727272 193.224528224 1165.3407272727272 203.37 C 1165.3407272727272 213.515471776 1157.3531624936727 221.74 1147.5 221.74 C 1137.6468375063273 221.74 1129.6592727272728 213.515471776 1129.6592727272728 203.37 Z"></path></g><g transform="translate(10,-14) scale(1,1)"><path fill="none" stroke="#000000" d="M 1129.6592727272728 203.37 C 1129.6592727272728 193.224528224 1137.6468375063273 185 1147.5 185 C 1157.3531624936727 185 1165.3407272727272 193.224528224 1165.3407272727272 203.37 C 1165.3407272727272 213.515471776 1157.3531624936727 221.74 1147.5 221.74 C 1137.6468375063273 221.74 1129.6592727272728 213.515471776 1129.6592727272728 203.37 Z" stroke-miterlimit="10"></path></g><g transform="translate(10,-14) scale(1,1)"><path fill="none" stroke="#000000" d="M 1147.5 221.74 L 1147.5 257.26" stroke-miterlimit="10"></path></g><g transform="translate(10,-14) scale(1,1)"><path fill="none" stroke="#000000" d="M 1128.6098181818181 235.06 L 1166.3901818181819 235.06" stroke-miterlimit="10"></path></g><g transform="translate(10,-14) scale(1,1)"><path fill="none" stroke="#000000" d="M 1147.5 257.26 L 1121.2636363636364 294" stroke-miterlimit="10"></path></g><g transform="translate(10,-14) scale(1,1)"><path fill="none" stroke="#000000" d="M 1147.5 257.26 L 1173.7363636363636 294" stroke-miterlimit="10"></path></g><g transform="translate(10,-14) scale(1,1)"><g><path fill="none" stroke="none"></path><text fill="#000000" stroke="none" font-family="Arial" font-size="13px" font-style="normal" font-weight="bold" text-decoration="none" x="1121.5" y="314.5">Systeme</text></g></g><g transform="translate(10,-14) scale(1,1)"><path fill="none" stroke="#000000" d="M 798 139 L 1095 235" stroke-miterlimit="10"></path></g><g transform="translate(10,-14) scale(1,1)"><path fill="none" stroke="#000000" d="M 857 256 L 1095 253" stroke-miterlimit="10"></path></g><g transform="translate(10,-14) scale(1,1)"><path fill="none" stroke="#000000" d="M 845 471 L 1095 290" stroke-miterlimit="10"></path></g><g transform="translate(10,-14) scale(1,1)"><path fill="none" stroke="#000000" d="M 936 591 L 1104 321" stroke-miterlimit="10"></path></g><g transform="translate(10,-14) scale(1,1)"><path fill="#ffffff" stroke="none" d="M 28.391636363636362 368.48 C 28.391636363636362 359.930631296 35.155880410763636 353 43.5 353 C 51.844119589236364 353 58.608363636363634 359.930631296 58.608363636363634 368.48 C 58.608363636363634 377.02936870400003 51.844119589236364 383.96 43.5 383.96 C 35.155880410763636 383.96 28.391636363636362 377.02936870400003 28.391636363636362 368.48 Z"></path></g><g transform="translate(10,-14) scale(1,1)"><path fill="none" stroke="#000000" d="M 28.391636363636362 368.48 C 28.391636363636362 359.930631296 35.155880410763636 353 43.5 353 C 51.844119589236364 353 58.608363636363634 359.930631296 58.608363636363634 368.48 C 58.608363636363634 377.02936870400003 51.844119589236364 383.96 43.5 383.96 C 35.155880410763636 383.96 28.391636363636362 377.02936870400003 28.391636363636362 368.48 Z" stroke-miterlimit="10"></path></g><g transform="translate(10,-14) scale(1,1)"><path fill="none" stroke="#000000" d="M 43.5 383.96 L 43.5 414.04" stroke-miterlimit="10"></path></g><g transform="translate(10,-14) scale(1,1)"><path fill="none" stroke="#000000" d="M 27.502909090909093 395.24 L 59.49709090909091 395.24" stroke-miterlimit="10"></path></g><g transform="translate(10,-14) scale(1,1)"><path fill="none" stroke="#000000" d="M 43.5 414.04 L 21.28181818181818 445" stroke-miterlimit="10"></path></g><g transform="translate(10,-14) scale(1,1)"><path fill="none" stroke="#000000" d="M 43.5 414.04 L 65.71818181818182 445" stroke-miterlimit="10"></path></g><g transform="translate(10,-14) scale(1,1)"><g><path fill="none" stroke="none"></path><text fill="#000000" stroke="none" font-family="Arial" font-size="13px" font-style="normal" font-weight="bold" text-decoration="none" x="19" y="465.5">Joueur 2</text></g></g><g transform="translate(10,-14) scale(1,1)"><path fill="none" stroke="#000000" d="M 52 351 L 72 216" stroke-miterlimit="10"></path></g><g transform="translate(10,-14) scale(1,1)"><path fill="#FFFFFF" stroke="none" d="M 77.3494862912375 237.33970469382982 L 72 216 L 60.69320813487306 234.87210792992397"></path></g><g transform="translate(10,-14) scale(1,1)"><path fill="none" stroke="#000000" d="M 77.3494862912375 237.33970469382982 L 72 216 L 60.69320813487306 234.87210792992397 L 77.3494862912375 237.33970469382982" stroke-miterlimit="10"></path></g><g transform="translate(10,-14) scale(1,1)"><path fill="#C0C0C0" stroke="none" d="M 351 176 C 351 166.6111584 389.27964959999997 159 436.5 159 C 483.72035040000003 159 522 166.6111584 522 176 C 522 185.3888416 483.72035040000003 193 436.5 193 C 389.27964959999997 193 351 185.3888416 351 176 Z" opacity="0.2"></path></g><g transform="translate(10,-14) scale(1,1)"><path fill="#ffffff" stroke="none" d="M 344 169 C 344 159.6111584 382.27964959999997 152 429.5 152 C 476.72035040000003 152 515 159.6111584 515 169 C 515 178.3888416 476.72035040000003 186 429.5 186 C 382.27964959999997 186 344 178.3888416 344 169 Z"></path></g><g transform="translate(10,-14) scale(1,1)"><path fill="none" stroke="#000000" d="M 344 169 C 344 159.6111584 382.27964959999997 152 429.5 152 C 476.72035040000003 152 515 159.6111584 515 169 C 515 178.3888416 476.72035040000003 186 429.5 186 C 382.27964959999997 186 344 178.3888416 344 169 Z" stroke-miterlimit="10"></path></g><g transform="translate(10,-14) scale(1,1)"><g><path fill="none" stroke="none"></path><text fill="#000000" stroke="none" font-family="Arial" font-size="13px" font-style="normal" font-weight="bold" text-decoration="none" x="379.5" y="176">Quitter une partie</text></g></g><g transform="translate(10,-14) scale(1,1)"><path fill="#C0C0C0" stroke="none" d="M 223 80 C 223 70.6111584 263.5182256 63 313.5 63 C 363.4817744 63 404 70.6111584 404 80 C 404 89.3888416 363.4817744 97 313.5 97 C 263.5182256 97 223 89.3888416 223 80 Z" opacity="0.2"></path></g><g transform="translate(10,-14) scale(1,1)"><path fill="#ffffff" stroke="none" d="M 216 73 C 216 63.6111584 256.5182256 56 306.5 56 C 356.4817744 56 397 63.6111584 397 73 C 397 82.3888416 356.4817744 90 306.5 90 C 256.5182256 90 216 82.3888416 216 73 Z"></path></g><g transform="translate(10,-14) scale(1,1)"><path fill="none" stroke="#000000" d="M 216 73 C 216 63.6111584 256.5182256 56 306.5 56 C 356.4817744 56 397 63.6111584 397 73 C 397 82.3888416 356.4817744 90 306.5 90 C 256.5182256 90 216 82.3888416 216 73 Z" stroke-miterlimit="10"></path></g><g transform="translate(10,-14) scale(1,1)"><g><path fill="none" stroke="none"></path><text fill="#000000" stroke="none" font-family="Arial" font-size="13px" font-style="normal" font-weight="bold" text-decoration="none" x="254" y="80">Abandonner partie</text></g></g><g transform="translate(10,-14) scale(1,1)"><path fill="#C0C0C0" stroke="none" d="M 319 600 C 319 590.6111584 361.9806592 583 415 583 C 468.0193408 583 511 590.6111584 511 600 C 511 609.3888416 468.0193408 617 415 617 C 361.9806592 617 319 609.3888416 319 600 Z" opacity="0.2"></path></g><g transform="translate(10,-14) scale(1,1)"><path fill="#ffffff" stroke="none" d="M 312 593 C 312 583.6111584 354.9806592 576 408 576 C 461.0193408 576 504 583.6111584 504 593 C 504 602.3888416 461.0193408 610 408 610 C 354.9806592 610 312 602.3888416 312 593 Z"></path></g><g transform="translate(10,-14) scale(1,1)"><path fill="none" stroke="#000000" d="M 312 593 C 312 583.6111584 354.9806592 576 408 576 C 461.0193408 576 504 583.6111584 504 593 C 504 602.3888416 461.0193408 610 408 610 C 354.9806592 610 312 602.3888416 312 593 Z" stroke-miterlimit="10"></path></g><g transform="translate(10,-14) scale(1,1)"><g><path fill="none" stroke="none"></path><text fill="#000000" stroke="none" font-family="Arial" font-size="13px" font-style="normal" font-weight="bold" text-decoration="none" x="351" y="600">Lancer une manche</text></g></g><g transform="translate(10,-14) scale(1,1)"><path fill="#C0C0C0" stroke="none" d="M 351 384 C 351 374.6111584 376.5197664 367 408 367 C 439.4802336 367 465 374.6111584 465 384 C 465 393.3888416 439.4802336 401 408 401 C 376.5197664 401 351 393.3888416 351 384 Z" opacity="0.2"></path></g><g transform="translate(10,-14) scale(1,1)"><path fill="#ffffff" stroke="none" d="M 344 377 C 344 367.6111584 369.5197664 360 401 360 C 432.4802336 360 458 367.6111584 458 377 C 458 386.3888416 432.4802336 394 401 394 C 369.5197664 394 344 386.3888416 344 377 Z"></path></g><g transform="translate(10,-14) scale(1,1)"><path fill="none" stroke="#000000" d="M 344 377 C 344 367.6111584 369.5197664 360 401 360 C 432.4802336 360 458 367.6111584 458 377 C 458 386.3888416 432.4802336 394 401 394 C 369.5197664 394 344 386.3888416 344 377 Z" stroke-miterlimit="10"></path></g><g transform="translate(10,-14) scale(1,1)"><g><path fill="none" stroke="none"></path><text fill="#000000" stroke="none" font-family="Arial" font-size="13px" font-style="normal" font-weight="bold" text-decoration="none" x="372.5" y="384">Jouer tour</text></g></g><g transform="translate(10,-14) scale(1,1)"><path fill="#C0C0C0" stroke="none" d="M 255 520 C 255 510.6111584 299.3238048 503 354 503 C 408.6761952 503 453 510.6111584 453 520 C 453 529.3888416 408.6761952 537 354 537 C 299.3238048 537 255 529.3888416 255 520 Z" opacity="0.2"></path></g><g transform="translate(10,-14) scale(1,1)"><path fill="#ffffff" stroke="none" d="M 248 513 C 248 503.6111584 292.3238048 496 347 496 C 401.6761952 496 446 503.6111584 446 513 C 446 522.3888416 401.6761952 530 347 530 C 292.3238048 530 248 522.3888416 248 513 Z"></path></g><g transform="translate(10,-14) scale(1,1)"><path fill="none" stroke="#000000" d="M 248 513 C 248 503.6111584 292.3238048 496 347 496 C 401.6761952 496 446 503.6111584 446 513 C 446 522.3888416 401.6761952 530 347 530 C 292.3238048 530 248 522.3888416 248 513 Z" stroke-miterlimit="10"></path></g><g transform="translate(10,-14) scale(1,1)"><g><path fill="none" stroke="none"></path><text fill="#000000" stroke="none" font-family="Arial" font-size="13px" font-style="normal" font-weight="bold" text-decoration="none" x="289.5" y="520">Rejoindre une partie</text></g></g><g transform="translate(10,-14) scale(1,1)"><path fill="none" stroke="#000000" d="M 394 575 L 361 531" stroke-miterlimit="10"></path></g><g transform="translate(10,-14) scale(1,1)"><path fill="#FFFFFF" stroke="none" d="M 379.93043823877457 542.2088584649795 L 361 531 L 366.4599814195234 552.3117010794178"></path></g><g transform="translate(10,-14) scale(1,1)"><path fill="none" stroke="#000000" d="M 379.93043823877457 542.2088584649795 L 361 531 L 366.4599814195234 552.3117010794178 L 379.93043823877457 542.2088584649795" stroke-miterlimit="10"></path></g><g transform="translate(10,-14) scale(1,1)"><path fill="#C0C0C0" stroke="none" d="M 831 616 C 831 606.6111584 876.2192352 599 932 599 C 987.7807648 599 1033 606.6111584 1033 616 C 1033 625.3888416 987.7807648 633 932 633 C 876.2192352 633 831 625.3888416 831 616 Z" opacity="0.2"></path></g><g transform="translate(10,-14) scale(1,1)"><path fill="#ffffff" stroke="none" d="M 824 609 C 824 599.6111584 869.2192352 592 925 592 C 980.7807648 592 1026 599.6111584 1026 609 C 1026 618.3888416 980.7807648 626 925 626 C 869.2192352 626 824 618.3888416 824 609 Z"></path></g><g transform="translate(10,-14) scale(1,1)"><path fill="none" stroke="#000000" d="M 824 609 C 824 599.6111584 869.2192352 592 925 592 C 980.7807648 592 1026 599.6111584 1026 609 C 1026 618.3888416 980.7807648 626 925 626 C 869.2192352 626 824 618.3888416 824 609 Z" stroke-miterlimit="10"></path></g><g transform="translate(10,-14) scale(1,1)"><g><path fill="none" stroke="none"></path><text fill="#000000" stroke="none" font-family="Arial" font-size="13px" font-style="normal" font-weight="bold" text-decoration="none" x="866.5" y="616">Sauvegarde la partie</text></g></g><g transform="translate(10,-14) scale(1,1)"><path fill="#C0C0C0" stroke="none" d="M 647 128 C 647 118.6111584 692.6669504 111 749 111 C 805.3330496 111 851 118.6111584 851 128 C 851 137.3888416 805.3330496 145 749 145 C 692.6669504 145 647 137.3888416 647 128 Z" opacity="0.2"></path></g><g transform="translate(10,-14) scale(1,1)"><path fill="#ffffff" stroke="none" d="M 640 121 C 640 111.6111584 685.6669504 104 742 104 C 798.3330496 104 844 111.6111584 844 121 C 844 130.3888416 798.3330496 138 742 138 C 685.6669504 138 640 130.3888416 640 121 Z"></path></g><g transform="translate(10,-14) scale(1,1)"><path fill="none" stroke="#000000" d="M 640 121 C 640 111.6111584 685.6669504 104 742 104 C 798.3330496 104 844 111.6111584 844 121 C 844 130.3888416 798.3330496 138 742 138 C 685.6669504 138 640 130.3888416 640 121 Z" stroke-miterlimit="10"></path></g><g transform="translate(10,-14) scale(1,1)"><g><path fill="none" stroke="none"></path><text fill="#000000" stroke="none" font-family="Arial" font-size="13px" font-style="normal" font-weight="bold" text-decoration="none" x="682" y="128">Determine le perdant</text></g></g><g transform="translate(10,-14) scale(1,1)"><path fill="#C0C0C0" stroke="none" d="M 615 384 C 615 374.6111584 660.890808 367 717.5 367 C 774.109192 367 820 374.6111584 820 384 C 820 393.3888416 774.109192 401 717.5 401 C 660.890808 401 615 393.3888416 615 384 Z" opacity="0.2"></path></g><g transform="translate(10,-14) scale(1,1)"><path fill="#ffffff" stroke="none" d="M 608 377 C 608 367.6111584 653.890808 360 710.5 360 C 767.109192 360 813 367.6111584 813 377 C 813 386.3888416 767.109192 394 710.5 394 C 653.890808 394 608 386.3888416 608 377 Z"></path></g><g transform="translate(10,-14) scale(1,1)"><path fill="none" stroke="#000000" d="M 608 377 C 608 367.6111584 653.890808 360 710.5 360 C 767.109192 360 813 367.6111584 813 377 C 813 386.3888416 767.109192 394 710.5 394 C 653.890808 394 608 386.3888416 608 377 Z" stroke-miterlimit="10"></path></g><g transform="translate(10,-14) scale(1,1)"><g><path fill="none" stroke="none"></path><text fill="#000000" stroke="none" font-family="Arial" font-size="13px" font-style="normal" font-weight="bold" text-decoration="none" x="650.5" y="384">Reprendre une partie</text></g></g><g transform="translate(10,-14) scale(1,1)"><path fill="none" stroke="#000000" d="M 662 395 L 395 495" stroke-miterlimit="10"></path></g><g transform="translate(10,-14) scale(1,1)"><path fill="#FFFFFF" stroke="none" d="M 411.08126162443693 479.9869048971769 L 395 495 L 416.98703049847916 495.75530779086955"></path></g><g transform="translate(10,-14) scale(1,1)"><path fill="none" stroke="#000000" d="M 411.08126162443693 479.9869048971769 L 395 495 L 416.98703049847916 495.75530779086955 L 411.08126162443693 479.9869048971769" stroke-miterlimit="10"></path></g><g transform="translate(10,-14) scale(1,1)"><path fill="#C0C0C0" stroke="none" d="M 399 256 C 399 246.6111584 424.5197664 239 456 239 C 487.4802336 239 513 246.6111584 513 256 C 513 265.3888416 487.4802336 273 456 273 C 424.5197664 273 399 265.3888416 399 256 Z" opacity="0.2"></path></g><g transform="translate(10,-14) scale(1,1)"><path fill="#ffffff" stroke="none" d="M 392 249 C 392 239.6111584 417.5197664 232 449 232 C 480.4802336 232 506 239.6111584 506 249 C 506 258.3888416 480.4802336 266 449 266 C 417.5197664 266 392 258.3888416 392 249 Z"></path></g><g transform="translate(10,-14) scale(1,1)"><path fill="none" stroke="#000000" d="M 392 249 C 392 239.6111584 417.5197664 232 449 232 C 480.4802336 232 506 239.6111584 506 249 C 506 258.3888416 480.4802336 266 449 266 C 417.5197664 266 392 258.3888416 392 249 Z" stroke-miterlimit="10"></path></g><g transform="translate(10,-14) scale(1,1)"><g><path fill="none" stroke="none"></path><text fill="#000000" stroke="none" font-family="Arial" font-size="13px" font-style="normal" font-weight="bold" text-decoration="none" x="416" y="256">Poser jeton</text></g></g><g transform="translate(10,-14) scale(1,1)"><path fill="none" stroke="#000000" d="M 442 267 L 408 359" stroke-miterlimit="10" stroke-dasharray="3"></path></g><g transform="translate(10,-14) scale(1,1)"><path fill="none" stroke="#000000" d="M 407.5743881731615 348.00823696703503 L 408 359 L 415.47139716889444 350.92669681328414" stroke-miterlimit="10"></path></g><g transform="translate(10,-14) scale(1,1)"><g><path fill="none" stroke="none"></path><text fill="#000000" stroke="none" font-family="Arial" font-size="13px" font-style="normal" font-weight="normal" text-decoration="none" x="425.5" y="329.5">«include»</text></g></g><g transform="translate(10,-14) scale(1,1)"><path fill="none" stroke="#000000" d="M 394 395 L 354 495" stroke-miterlimit="10" stroke-dasharray="3"></path></g><g transform="translate(10,-14) scale(1,1)"><path fill="none" stroke="#000000" d="M 353.86588357261144 484.00081763111893 L 354 495 L 361.68276180526834 487.1275689241817" stroke-miterlimit="10"></path></g><g transform="translate(10,-14) scale(1,1)"><g><path fill="none" stroke="none"></path><text fill="#000000" stroke="none" font-family="Arial" font-size="13px" font-style="normal" font-weight="normal" text-decoration="none" x="373.5" y="462.5">«include»</text></g></g><g transform="translate(10,-14) scale(1,1)"><path fill="none" stroke="#000000" d="M 459 377 L 607 377" stroke-miterlimit="10" stroke-dasharray="3"></path></g><g transform="translate(10,-14) scale(1,1)"><path fill="none" stroke="#000000" d="M 596.8373251423759 381.209517756016 L 607 377 L 596.8373251423758 372.790482243984" stroke-miterlimit="10"></path></g><g transform="translate(10,-14) scale(1,1)"><g><path fill="none" stroke="none"></path><text fill="#000000" stroke="none" font-family="Arial" font-size="13px" font-style="normal" font-weight="normal" text-decoration="none" x="591.5" y="324.5">«include»</text></g></g><g transform="translate(10,-14) scale(1,1)"><path fill="none" stroke="#000000" d="M 699 275 L 454 359" stroke-miterlimit="10" stroke-dasharray="3"></path></g><g transform="translate(10,-14) scale(1,1)"><path fill="none" stroke="#000000" d="M 462.2480920795852 351.7220210877824 L 454 359 L 464.9785900834875 359.6859735991641" stroke-miterlimit="10"></path></g><g transform="translate(10,-14) scale(1,1)"><g><path fill="none" stroke="none"></path><text fill="#000000" stroke="none" font-family="Arial" font-size="13px" font-style="normal" font-weight="normal" text-decoration="none" x="495.5" y="396.5">«include»</text></g></g><g transform="translate(10,-14) scale(1,1)"><path fill="none" stroke="#000000" d="M 749 507 L 479 575" stroke-miterlimit="10" stroke-dasharray="3"></path></g><g transform="translate(10,-14) scale(1,1)"><path fill="none" stroke="#000000" d="M 487.8268625938595 568.4359694737818 L 479 575 L 489.8830048937243 576.6000638997156" stroke-miterlimit="10"></path></g><g transform="translate(10,-14) scale(1,1)"><g><path fill="none" stroke="none"></path><text fill="#000000" stroke="none" font-family="Arial" font-size="13px" font-style="normal" font-weight="normal" text-decoration="none" x="593.5" y="576.5">«include»</text></g></g><g transform="translate(10,-14) scale(1,1)"><path fill="none" stroke="#000000" d="M 743 139 L 751 239" stroke-miterlimit="10" stroke-dasharray="3"></path></g><g transform="translate(10,-14) scale(1,1)"><path fill="none" stroke="#000000" d="M 745.9934636200242 229.20537936028256 L 751 239 L 754.3856868489559 228.53400150196805" stroke-miterlimit="10"></path></g><g transform="translate(10,-14) scale(1,1)"><g><path fill="none" stroke="none"></path><text fill="#000000" stroke="none" font-family="Arial" font-size="13px" font-style="normal" font-weight="normal" text-decoration="none" x="748.5" y="192.5">«include»</text></g></g><g transform="translate(10,-14) scale(1,1)"><path fill="none" stroke="#000000" d="M 406 151 L 329 91" stroke-miterlimit="10" stroke-dasharray="3"></path></g><g transform="translate(10,-14) scale(1,1)"><path fill="none" stroke="#000000" d="M 339.6036991837932 93.92601497255635 L 329 91 L 334.4289425695745 100.56695262747037" stroke-miterlimit="10"></path></g><g transform="translate(10,-14) scale(1,1)"><g><path fill="none" stroke="none"></path><text fill="#000000" stroke="none" font-family="Arial" font-size="13px" font-style="normal" font-weight="normal" text-decoration="none" x="311.5" y="140.5">«extend»</text></g></g></g></svg>